<svg width="12" height="12" viewBox="0 0 12 12" fill="none" xmlns="http://www.w3.org/2000/svg">
<g clip-path="url(#clip0_0_208)">
<path d="M7.0984 6.50214L7.10511 6.50941L7.11211 6.51641L11.4235 10.8278C11.5025 10.9068 11.5469 11.014 11.5469 11.1257C11.5469 11.2374 11.5025 11.3446 11.4235 11.4236C11.3445 11.5026 11.2374 11.547 11.1257 11.547C11.0139 11.547 10.9068 11.5026 10.8278 11.4236L6.54208 7.13788L6.53508 7.13088L6.52781 7.12416C6.39109 6.99786 6.21179 6.92772 6.02567 6.92772C5.83954 6.92772 5.66024 6.99786 5.52352 7.12416L5.51625 7.13088L5.50925 7.13788L1.22354 11.4236L1.22351 11.4236L1.2186 11.4286C1.18053 11.4678 1.13498 11.4989 1.08467 11.5201C1.03435 11.5414 0.980286 11.5524 0.925665 11.5524C0.871044 11.5524 0.816977 11.5414 0.76666 11.5201C0.716347 11.4989 0.670804 11.4678 0.632727 11.4286L0.632868 11.4285L0.622783 11.4187C0.58362 11.3806 0.55249 11.335 0.531233 11.2847C0.509976 11.2344 0.499023 11.1803 0.499023 11.1257C0.499023 11.0711 0.509976 11.017 0.531233 10.9667C0.55249 10.9164 0.58362 10.8709 0.622783 10.8328L0.622817 10.8328L0.62779 10.8278L4.9135 6.54212L4.9205 6.53513L4.92722 6.52786C5.05352 6.39114 5.12366 6.21184 5.12366 6.02571C5.12366 5.83958 5.05352 5.66029 4.92722 5.52357L4.9205 5.5163L4.9135 5.5093L0.62779 1.22359L0.627825 1.22355L0.622783 1.21865C0.58362 1.18058 0.55249 1.13503 0.531233 1.08472C0.509976 1.0344 0.499023 0.980336 0.499023 0.925714C0.499023 0.871093 0.509976 0.817025 0.531233 0.76671C0.55249 0.716395 0.58362 0.670852 0.622783 0.632776L0.627868 0.627832L0.63281 0.622746C0.707753 0.545628 0.810078 0.501165 0.917591 0.499C1.02337 0.49687 1.12577 0.535851 1.20332 0.607618L5.48354 4.88784L5.49054 4.89484L5.49781 4.90155C5.63453 5.02786 5.81382 5.098 5.99995 5.098C6.18608 5.098 6.36537 5.02786 6.5021 4.90155L6.50936 4.89484L6.51636 4.88784L10.8021 0.602125L10.8021 0.60216L10.807 0.597117C10.8451 0.557956 10.8906 0.526825 10.9409 0.505567C10.9913 0.484311 11.0453 0.473358 11.1 0.473358C11.1546 0.473358 11.2086 0.484311 11.259 0.505567C11.3093 0.526825 11.3548 0.557955 11.3929 0.597117L11.3927 0.597255L11.4028 0.607061C11.442 0.645139 11.4731 0.690681 11.4944 0.740995C11.5156 0.791312 11.5266 0.845379 11.5266 0.9C11.5266 0.95462 11.5156 1.00869 11.4944 1.059C11.4731 1.10932 11.442 1.15486 11.4028 1.19294L11.4028 1.1929L11.3978 1.19787L7.11211 5.48359L7.10511 5.49059L7.0984 5.49786C6.97209 5.63458 6.90195 5.81387 6.90195 6C6.90195 6.18613 6.97209 6.36542 7.0984 6.50214Z" stroke="black"/>
</g>
<defs>
<clipPath id="clip0_0_208">
<rect width="12" height="12" fill="white"/>
</clipPath>
</defs>
</svg>
